<mxfile host="65bd71144e">
    <diagram id="QAT0Rklr1acDcikRpK9F" name="第 1 页">
        <mxGraphModel dx="1315" dy="990" grid="1" gridSize="10" guides="1" tooltips="1" connect="1" arrows="1" fold="1" page="1" pageScale="1" pageWidth="827" pageHeight="1169" background="#ffffff" math="0" shadow="0">
            <root>
                <mxCell id="0"/>
                <mxCell id="1" parent="0"/>
                <mxCell id="2" value="" style="rounded=0;whiteSpace=wrap;html=1;fillColor=#fad7ac;strokeColor=#b46504;fontSize=20;" vertex="1" parent="1">
                    <mxGeometry x="80" y="80" width="800" height="160" as="geometry"/>
                </mxCell>
                <mxCell id="22" value="" style="endArrow=none;dashed=1;html=1;dashPattern=1 3;strokeWidth=2;strokeColor=#000000;fontSize=20;fontColor=#000000;exitX=1;exitY=0.5;exitDx=0;exitDy=0;entryX=0;entryY=0.5;entryDx=0;entryDy=0;" edge="1" parent="1" source="3" target="15">
                    <mxGeometry width="50" height="50" relative="1" as="geometry">
                        <mxPoint x="350" y="250" as="sourcePoint"/>
                        <mxPoint x="400" y="200" as="targetPoint"/>
                    </mxGeometry>
                </mxCell>
                <mxCell id="3" value="HTTP/1.1" style="rounded=0;whiteSpace=wrap;html=1;fillColor=#1ba1e2;strokeColor=#006EAF;fontColor=#000000;fontSize=20;" vertex="1" parent="1">
                    <mxGeometry x="110" y="130" width="120" height="60" as="geometry"/>
                </mxCell>
                <mxCell id="4" value="..." style="rounded=0;whiteSpace=wrap;html=1;fontColor=#000000;fillColor=#fa6800;strokeColor=#C73500;fontSize=20;" vertex="1" parent="1">
                    <mxGeometry x="250" y="140" width="40" height="40" as="geometry"/>
                </mxCell>
                <mxCell id="5" value="5 4 3 2 1" style="rounded=0;whiteSpace=wrap;html=1;fontColor=#000000;fillColor=#fa6800;strokeColor=#C73500;fontSize=20;" vertex="1" parent="1">
                    <mxGeometry x="300" y="140" width="80" height="40" as="geometry"/>
                </mxCell>
                <mxCell id="6" value="" style="ellipse;shape=cloud;whiteSpace=wrap;html=1;fontColor=#ffffff;fillColor=#1ba1e2;strokeColor=#006EAF;fontSize=20;" vertex="1" parent="1">
                    <mxGeometry x="380" y="90" width="180" height="130" as="geometry"/>
                </mxCell>
                <mxCell id="7" value="4" style="rounded=0;whiteSpace=wrap;html=1;fontColor=#000000;fillColor=#fa6800;strokeColor=#C73500;fontSize=20;" vertex="1" parent="1">
                    <mxGeometry x="440" y="110" width="30" height="30" as="geometry"/>
                </mxCell>
                <mxCell id="8" value="2" style="rounded=0;whiteSpace=wrap;html=1;fontColor=#000000;fillColor=#fa6800;strokeColor=#C73500;fontSize=20;" vertex="1" parent="1">
                    <mxGeometry x="491" y="120" width="30" height="30" as="geometry"/>
                </mxCell>
                <mxCell id="9" value="3" style="rounded=0;whiteSpace=wrap;html=1;fontColor=#000000;fillColor=#fa6800;strokeColor=#C73500;fontSize=20;" vertex="1" parent="1">
                    <mxGeometry x="413" y="150" width="30" height="30" as="geometry"/>
                </mxCell>
                <mxCell id="10" value="1" style="rounded=0;whiteSpace=wrap;html=1;fontColor=#000000;fillColor=#fa6800;strokeColor=#C73500;fontSize=20;" vertex="1" parent="1">
                    <mxGeometry x="455" y="172" width="30" height="30" as="geometry"/>
                </mxCell>
                <mxCell id="11" value="5" style="rounded=0;whiteSpace=wrap;html=1;fontColor=#000000;fillColor=#fa6800;strokeColor=#C73500;fontSize=20;" vertex="1" parent="1">
                    <mxGeometry x="500" y="160" width="30" height="30" as="geometry"/>
                </mxCell>
                <mxCell id="12" value="5 4 3 2 1" style="rounded=0;whiteSpace=wrap;html=1;fontColor=#000000;fillColor=#fa6800;strokeColor=#C73500;fontSize=20;" vertex="1" parent="1">
                    <mxGeometry x="620" y="140" width="80" height="40" as="geometry"/>
                </mxCell>
                <mxCell id="14" value="..." style="rounded=0;whiteSpace=wrap;html=1;fontColor=#000000;fillColor=#fa6800;strokeColor=#C73500;fontSize=20;" vertex="1" parent="1">
                    <mxGeometry x="570" y="140" width="40" height="40" as="geometry"/>
                </mxCell>
                <mxCell id="21" value="" style="edgeStyle=none;html=1;fontSize=20;fontColor=#000000;strokeWidth=2;strokeColor=#000000;" edge="1" parent="1" source="15" target="18">
                    <mxGeometry relative="1" as="geometry"/>
                </mxCell>
                <mxCell id="15" value="HTTP/1.1" style="rounded=0;whiteSpace=wrap;html=1;fillColor=#1ba1e2;strokeColor=#006EAF;fontColor=#000000;fontSize=20;" vertex="1" parent="1">
                    <mxGeometry x="720" y="130" width="120" height="60" as="geometry"/>
                </mxCell>
                <mxCell id="20" value="" style="edgeStyle=none;html=1;fontSize=20;fontColor=#000000;strokeWidth=2;strokeColor=#000000;" edge="1" parent="1" source="17" target="3">
                    <mxGeometry relative="1" as="geometry"/>
                </mxCell>
                <mxCell id="17" value="发送请求" style="text;html=1;strokeColor=none;fillColor=none;align=center;verticalAlign=middle;whiteSpace=wrap;rounded=0;fontColor=#000000;fontSize=20;" vertex="1" parent="1">
                    <mxGeometry x="40" y="125" width="20" height="70" as="geometry"/>
                </mxCell>
                <mxCell id="18" value="接收请求" style="text;html=1;strokeColor=none;fillColor=none;align=center;verticalAlign=middle;whiteSpace=wrap;rounded=0;fontColor=#000000;fontSize=20;" vertex="1" parent="1">
                    <mxGeometry x="910" y="107.5" width="20" height="105" as="geometry"/>
                </mxCell>
            </root>
        </mxGraphModel>
    </diagram>
</mxfile>